<svg width="248" height="340" viewBox="0 0 248 340" fill="none" xmlns="http://www.w3.org/2000/svg">
<g filter="url(#filter0_d_16_536)">
<rect x="20" y="10" width="208" height="300" rx="4" fill="#E0E3E8" shape-rendering="crispEdges"/>
<path d="M100.49 168V150.539H107.023C108.36 150.539 109.485 150.79 110.398 151.292C111.31 151.793 112.001 152.479 112.469 153.349C112.937 154.218 113.171 155.209 113.171 156.322C113.171 157.437 112.935 158.428 112.462 159.296C111.99 160.163 111.294 160.846 110.374 161.345C109.454 161.843 108.32 162.093 106.972 162.093H102.644V159.516H106.558C107.351 159.516 107.999 159.379 108.502 159.104C109.006 158.83 109.377 158.452 109.615 157.97C109.854 157.488 109.973 156.939 109.973 156.322C109.973 155.699 109.854 155.15 109.615 154.674C109.377 154.199 109.005 153.827 108.499 153.56C107.993 153.292 107.341 153.158 106.543 153.158H103.619V168H100.49ZM123.08 168H118.658V165.289H122.922C124.144 165.289 125.164 165.066 125.983 164.62C126.801 164.174 127.415 163.503 127.826 162.607C128.236 161.711 128.441 160.592 128.441 159.251C128.441 157.917 128.236 156.806 127.825 155.918C127.415 155.029 126.807 154.362 126.003 153.918C125.199 153.473 124.2 153.25 123.006 153.25H118.573V150.539H123.197C124.934 150.539 126.423 150.887 127.665 151.584C128.907 152.281 129.863 153.28 130.531 154.583C131.2 155.885 131.534 157.441 131.534 159.251C131.534 161.069 131.199 162.631 130.53 163.938C129.86 165.245 128.894 166.249 127.632 166.95C126.371 167.65 124.853 168 123.08 168ZM120.3 150.539V168H117.17V150.539H120.3ZM135.703 168V150.539H146.881V153.174H138.832V158.417H146.101V161.018H138.832V168H135.703Z" fill="#747780"/>
</g>
<defs>
<filter id="filter0_d_16_536" x="0" y="0" width="248" height="340" filterUnits="userSpaceOnUse" color-interpolation-filters="sRGB">
<feFlood flood-opacity="0" result="BackgroundImageFix"/>
<feColorMatrix in="SourceAlpha" type="matrix" values="0 0 0 0 0 0 0 0 0 0 0 0 0 0 0 0 0 0 127 0" result="hardAlpha"/>
<feOffset dy="10"/>
<feGaussianBlur stdDeviation="10"/>
<feComposite in2="hardAlpha" operator="out"/>
<feColorMatrix type="matrix" values="0 0 0 0 0 0 0 0 0 0 0 0 0 0 0 0 0 0 0.02 0"/>
<feBlend mode="normal" in2="BackgroundImageFix" result="effect1_dropShadow_16_536"/>
<feBlend mode="normal" in="SourceGraphic" in2="effect1_dropShadow_16_536" result="shape"/>
</filter>
</defs>
</svg>
